<svg width="32" height="38" viewBox="0 0 32 38" fill="none" xmlns="http://www.w3.org/2000/svg">
<mask id="path-1-inside-1_1_9" fill="white">
<path d="M16 38L9.9375 32H2C0.895431 32 0 31.1046 0 30V2C0 0.895431 0.895431 0 2 0H30C31.1046 0 32 0.895431 32 2V30C32 31.1046 31.1046 32 30 32H22.0625L16 38Z"/>
</mask>
<path d="M16 38L9.9375 32H2C0.895431 32 0 31.1046 0 30V2C0 0.895431 0.895431 0 2 0H30C31.1046 0 32 0.895431 32 2V30C32 31.1046 31.1046 32 30 32H22.0625L16 38Z" fill="#F1F1F1"/>
<path d="M16 38L15.6483 38.3554L16 38.7035L16.3517 38.3554L16 38ZM9.9375 32L10.2892 31.6446L10.1431 31.5H9.9375V32ZM22.0625 32V31.5H21.8569L21.7108 31.6446L22.0625 32ZM16 38L16.3517 37.6446L10.2892 31.6446L9.9375 32L9.58578 32.3554L15.6483 38.3554L16 38ZM9.9375 32V31.5H2V32V32.5H9.9375V32ZM2 32V31.5C1.17157 31.5 0.5 30.8284 0.5 30H0H-0.5C-0.5 31.3807 0.619288 32.5 2 32.5V32ZM0 30H0.5V2H0H-0.5V30H0ZM0 2H0.5C0.5 1.17157 1.17157 0.5 2 0.5V0V-0.5C0.619288 -0.5 -0.5 0.619288 -0.5 2H0ZM2 0V0.5H30V0V-0.5H2V0ZM30 0V0.5C30.8284 0.5 31.5 1.17157 31.5 2H32H32.5C32.5 0.619288 31.3807 -0.5 30 -0.5V0ZM32 2H31.5V30H32H32.5V2H32ZM32 30H31.5C31.5 30.8284 30.8284 31.5 30 31.5V32V32.5C31.3807 32.5 32.5 31.3807 32.5 30H32ZM30 32V31.5H22.0625V32V32.5H30V32ZM22.0625 32L21.7108 31.6446L15.6483 37.6446L16 38L16.3517 38.3554L22.4142 32.3554L22.0625 32Z" fill="#2106EF" mask="url(#path-1-inside-1_1_9)"/>
<rect x="6" y="11" width="20" height="12" rx="2" fill="#2106EF"/>
<path d="M13 11C13 9.89543 13.8954 9 15 9H17C18.1046 9 19 9.89543 19 11H13Z" fill="#2106EF"/>
<circle cx="16" cy="17" r="3.5" fill="#2106EF" stroke="#F1F1F1"/>
<circle cx="23" cy="13" r="0.5" fill="#D9D9D9" stroke="#F1F1F1"/>
</svg>
