<svg width="32" height="38" viewBox="0 0 32 38" fill="none" xmlns="http://www.w3.org/2000/svg">
<mask id="path-1-inside-1_5_10" fill="white">
<path d="M16 38L9.9375 32H2C0.895431 32 0 31.1046 0 30V2C0 0.895431 0.895431 0 2 0H30C31.1046 0 32 0.895431 32 2V30C32 31.1046 31.1046 32 30 32H22.0625L16 38Z"/>
</mask>
<path d="M16 38L9.9375 32H2C0.895431 32 0 31.1046 0 30V2C0 0.895431 0.895431 0 2 0H30C31.1046 0 32 0.895431 32 2V30C32 31.1046 31.1046 32 30 32H22.0625L16 38Z" fill="#F1F1F1"/>
<path d="M16 38L15.2966 38.7108L16 39.4069L16.7034 38.7108L16 38ZM9.9375 32L10.6409 31.2892L10.3487 31H9.9375V32ZM22.0625 32V31H21.6513L21.3591 31.2892L22.0625 32ZM16 38L16.7034 37.2892L10.6409 31.2892L9.9375 32L9.23407 32.7108L15.2966 38.7108L16 38ZM9.9375 32V31H2V32V33H9.9375V32ZM2 32V31C1.44771 31 1 30.5523 1 30H0H-1C-1 31.6569 0.343146 33 2 33V32ZM0 30H1V2H0H-1V30H0ZM0 2H1C1 1.44772 1.44772 1 2 1V0V-1C0.343146 -1 -1 0.343146 -1 2H0ZM2 0V1H30V0V-1H2V0ZM30 0V1C30.5523 1 31 1.44771 31 2H32H33C33 0.343146 31.6569 -1 30 -1V0ZM32 2H31V30H32H33V2H32ZM32 30H31C31 30.5523 30.5523 31 30 31V32V33C31.6569 33 33 31.6569 33 30H32ZM30 32V31H22.0625V32V33H30V32ZM22.0625 32L21.3591 31.2892L15.2966 37.2892L16 38L16.7034 38.7108L22.7659 32.7108L22.0625 32Z" fill="#EF0606" mask="url(#path-1-inside-1_5_10)"/>
<path d="M15.7832 5.875C15.8673 5.72926 16.062 5.71115 16.1738 5.82031L16.2168 5.875L27.4746 25.375C27.5708 25.5415 27.451 25.7497 27.2588 25.75H4.74121C4.54903 25.7497 4.42924 25.5415 4.52539 25.375L15.7832 5.875Z" fill="#FBDE00" stroke="#EF0606" stroke-width="1.5"/>
<path d="M17.1108 14.2727L16.9148 20.3281H15.1634L14.9673 14.2727H17.1108ZM16.0369 23.1236C15.733 23.1236 15.4716 23.0156 15.2528 22.7997C15.0369 22.5838 14.929 22.3224 14.929 22.0156C14.929 21.7145 15.0369 21.4574 15.2528 21.2443C15.4716 21.0284 15.733 20.9205 16.0369 20.9205C16.3295 20.9205 16.5866 21.0284 16.8082 21.2443C17.0327 21.4574 17.1449 21.7145 17.1449 22.0156C17.1449 22.2202 17.0923 22.4062 16.9872 22.5739C16.8849 22.7415 16.75 22.875 16.5824 22.9744C16.4176 23.0739 16.2358 23.1236 16.0369 23.1236Z" fill="#EF0606"/>
</svg>
