<svg width="32" height="38" viewBox="0 0 32 38" fill="none" xmlns="http://www.w3.org/2000/svg">
<mask id="path-1-inside-1_1_9" fill="white">
<path d="M16 38L9.9375 32H2C0.895431 32 0 31.1046 0 30V2C0 0.895431 0.895431 0 2 0H30C31.1046 0 32 0.895431 32 2V30C32 31.1046 31.1046 32 30 32H22.0625L16 38Z"/>
</mask>
<path d="M16 38L9.9375 32H2C0.895431 32 0 31.1046 0 30V2C0 0.895431 0.895431 0 2 0H30C31.1046 0 32 0.895431 32 2V30C32 31.1046 31.1046 32 30 32H22.0625L16 38Z" fill="#F1F1F1"/>
<path d="M16 38L15.2966 38.7108L16 39.4069L16.7034 38.7108L16 38ZM9.9375 32L10.6409 31.2892L10.3487 31H9.9375V32ZM22.0625 32V31H21.6513L21.3591 31.2892L22.0625 32ZM16 38L16.7034 37.2892L10.6409 31.2892L9.9375 32L9.23407 32.7108L15.2966 38.7108L16 38ZM9.9375 32V31H2V32V33H9.9375V32ZM2 32V31C1.44771 31 1 30.5523 1 30H0H-1C-1 31.6569 0.343146 33 2 33V32ZM0 30H1V2H0H-1V30H0ZM0 2H1C1 1.44772 1.44772 1 2 1V0V-1C0.343146 -1 -1 0.343146 -1 2H0ZM2 0V1H30V0V-1H2V0ZM30 0V1C30.5523 1 31 1.44771 31 2H32H33C33 0.343146 31.6569 -1 30 -1V0ZM32 2H31V30H32H33V2H32ZM32 30H31C31 30.5523 30.5523 31 30 31V32V33C31.6569 33 33 31.6569 33 30H32ZM30 32V31H22.0625V32V33H30V32ZM22.0625 32L21.3591 31.2892L15.2966 37.2892L16 38L16.7034 38.7108L22.7659 32.7108L22.0625 32Z" fill="#2106EF" mask="url(#path-1-inside-1_1_9)"/>
<rect x="6" y="11" width="20" height="12" rx="2" fill="#2106EF"/>
<path d="M13 11C13 9.89543 13.8954 9 15 9H17C18.1046 9 19 9.89543 19 11H13Z" fill="#2106EF"/>
<circle cx="16" cy="17" r="3.5" fill="#2106EF" stroke="#F1F1F1"/>
<circle cx="23" cy="13" r="0.5" fill="#D9D9D9" stroke="#F1F1F1"/>
</svg>
