<svg width="32" height="38" viewBox="0 0 32 38" fill="none" xmlns="http://www.w3.org/2000/svg">
<mask id="path-1-inside-1_5_10" fill="white">
<path d="M16 38L9.9375 32H2C0.895431 32 0 31.1046 0 30V2C0 0.895431 0.895431 0 2 0H30C31.1046 0 32 0.895431 32 2V30C32 31.1046 31.1046 32 30 32H22.0625L16 38Z"/>
</mask>
<path d="M16 38L9.9375 32H2C0.895431 32 0 31.1046 0 30V2C0 0.895431 0.895431 0 2 0H30C31.1046 0 32 0.895431 32 2V30C32 31.1046 31.1046 32 30 32H22.0625L16 38Z" fill="#F1F1F1"/>
<path d="M16 38L15.6483 38.3554L16 38.7035L16.3517 38.3554L16 38ZM9.9375 32L10.2892 31.6446L10.1431 31.5H9.9375V32ZM22.0625 32V31.5H21.8569L21.7108 31.6446L22.0625 32ZM16 38L16.3517 37.6446L10.2892 31.6446L9.9375 32L9.58578 32.3554L15.6483 38.3554L16 38ZM9.9375 32V31.5H2V32V32.5H9.9375V32ZM2 32V31.5C1.17157 31.5 0.5 30.8284 0.5 30H0H-0.5C-0.5 31.3807 0.619288 32.5 2 32.5V32ZM0 30H0.5V2H0H-0.5V30H0ZM0 2H0.5C0.5 1.17157 1.17157 0.5 2 0.5V0V-0.5C0.619288 -0.5 -0.5 0.619288 -0.5 2H0ZM2 0V0.5H30V0V-0.5H2V0ZM30 0V0.5C30.8284 0.5 31.5 1.17157 31.5 2H32H32.5C32.5 0.619288 31.3807 -0.5 30 -0.5V0ZM32 2H31.5V30H32H32.5V2H32ZM32 30H31.5C31.5 30.8284 30.8284 31.5 30 31.5V32V32.5C31.3807 32.5 32.5 31.3807 32.5 30H32ZM30 32V31.5H22.0625V32V32.5H30V32ZM22.0625 32L21.7108 31.6446L15.6483 37.6446L16 38L16.3517 38.3554L22.4142 32.3554L22.0625 32Z" fill="#EF0606" mask="url(#path-1-inside-1_5_10)"/>
<path d="M15.5674 5.75C15.7599 5.41689 16.2401 5.41689 16.4326 5.75L27.6914 25.25C27.8838 25.5832 27.6434 25.9997 27.2588 26H4.74121C4.35659 25.9997 4.11625 25.5832 4.30859 25.25L15.5674 5.75Z" fill="#F1F1F1" stroke="#EF0606"/>
<path d="M17.1108 14.2727L16.9148 20.3281H15.1634L14.9673 14.2727H17.1108ZM16.0369 23.1236C15.733 23.1236 15.4716 23.0156 15.2528 22.7997C15.0369 22.5838 14.929 22.3224 14.929 22.0156C14.929 21.7145 15.0369 21.4574 15.2528 21.2443C15.4716 21.0284 15.733 20.9205 16.0369 20.9205C16.3295 20.9205 16.5866 21.0284 16.8082 21.2443C17.0327 21.4574 17.1449 21.7145 17.1449 22.0156C17.1449 22.2202 17.0923 22.4062 16.9872 22.5739C16.8849 22.7415 16.75 22.875 16.5824 22.9744C16.4176 23.0739 16.2358 23.1236 16.0369 23.1236Z" fill="#EF0606"/>
</svg>
